<svg width="240" height="324" viewBox="0 0 240 324" fill="none" xmlns="http://www.w3.org/2000/svg">
<path fill-rule="evenodd" clip-rule="evenodd" d="M170.479 181.122C168.644 180.468 166.876 179.712 165.265 178.601C160.621 175.142 157.592 169.938 154.731 165.007C150.7 157.835 147.829 150.193 145.844 142.221C144.991 138.796 144.702 134.824 142.764 131.788C138.371 125.429 125.491 126.253 118.651 127.369C114.07 128.18 113.124 133.308 112.084 137.102C111.217 140.255 110.65 143.443 110.174 146.674C109.042 147.419 107.764 148.024 106.545 148.551C93.2649 152.625 90.9308 160.177 85.8584 171.843C77.2913 188.8 54.0445 195.439 50.533 215.506C48.2706 228.755 54.7043 241.219 61.3375 252.233C67.5149 264.263 76.1391 270.037 89.8734 267.195C102.755 264.304 115.136 259.468 127.791 255.731C133.921 254.224 140.04 250.302 146.488 251.669C159.774 254.654 173.424 256.058 187.039 255.67C206.155 256.444 206.153 238.089 204.19 223.875C202.816 201.755 191.663 187.551 170.479 181.122V181.122Z" fill="white"/>
<path fill-rule="evenodd" clip-rule="evenodd" d="M171.757 213.13C173.354 214.187 174.698 215.789 175.776 217.475C171.274 217.007 166.779 216.467 162.294 215.852C162.882 215.476 163.474 215.109 164.08 214.763C166.292 213.516 169.288 211.497 171.757 213.13ZM96.9501 226.445C96.1251 226.122 95.8058 224.863 95.4843 224.142C94.4761 221.88 93.5561 219.579 92.5988 217.295C96.2334 216.259 99.768 215.109 103.533 214.556C107.582 213.963 111.69 213.819 115.776 213.953C124.052 214.223 132.251 215.576 140.388 217.027C148.515 218.476 156.642 219.868 164.826 220.961C172.845 222.031 180.888 222.815 188.947 223.503C190.512 223.636 193.123 224.2 194.382 222.967C195.379 221.991 195.412 220.19 194.164 219.397C193.387 218.902 192.261 218.895 191.373 218.781C190.255 218.637 189.133 218.541 188.008 218.466C187.55 218.436 187.092 218.408 186.633 218.38C190.313 216.992 194.156 216.236 198.145 216.447C198.371 217.818 199.387 219.228 199.943 220.359C200.915 222.333 201.672 224.331 202.169 226.477C203.208 230.964 203.253 235.62 202.96 240.196C202.69 244.011 202.111 248.232 199.12 250.934C196.855 252.98 193.659 253.737 190.694 253.975C187.249 254.252 183.75 253.957 180.333 253.495C175.54 252.846 170.726 251.989 166.027 250.84C156.928 248.615 148.206 245.075 140.159 240.274C136.235 237.934 132.49 235.3 128.512 233.049C124.458 230.754 120.145 228.974 115.616 227.868C110.547 226.631 105.249 226.103 100.039 226.408C99.1354 226.461 97.8294 226.789 96.9501 226.445ZM91.0762 224.148C91.6088 225.877 92.0164 227.851 93.1532 229.304C94.2793 230.744 95.9781 231.252 97.7379 231.38C99.8599 231.534 102.007 231.435 104.133 231.514C108.495 231.676 112.797 232.385 116.966 233.685C120.852 234.897 124.459 236.787 127.934 238.883C131.147 240.822 134.265 242.904 137.479 244.837C136.624 245.229 135.778 245.653 134.928 246.023C133.144 246.798 131.35 247.545 129.547 248.274C125.993 249.711 122.423 251.114 118.817 252.416C111.546 255.043 104.155 257.338 96.6746 259.293C93.1071 260.226 89.489 261.315 85.7827 261.47C82.4962 261.607 79.4521 260.678 76.8015 258.723C71.3039 254.669 66.93 248.817 63.3943 243.044C61.2936 239.614 59.4605 236.011 57.9442 232.285C57.1773 230.401 56.4818 228.488 55.8558 226.552C55.5621 225.643 55.2837 224.729 55.02 223.811C54.904 223.408 54.7929 223.003 54.6829 222.597C60.3045 220.881 65.9929 219.332 71.8148 218.472C74.9231 218.013 78.0729 217.78 81.2153 217.814C82.7751 217.831 84.334 217.915 85.8856 218.076C86.7207 218.163 87.5525 218.274 88.3807 218.412C88.7229 218.469 89.0747 218.553 89.4275 218.615C89.9664 220.463 90.5098 222.309 91.0762 224.148ZM207.283 216.803C207.585 216.19 207.713 215.586 207.822 214.919C207.905 214.41 208.124 213.693 207.932 213.032C207.716 212.292 207.129 211.629 206.708 210.998C206.242 210.3 205.777 209.602 205.313 208.903C204.384 207.506 203.457 206.107 202.532 204.708C198.753 198.993 195 193.261 191.241 187.533C187.905 182.45 184.625 177.321 181.188 172.306C178.248 168.018 175.044 163.8 171.021 160.465C165.934 156.248 159.876 154.262 153.549 152.712C152.858 151.994 151.935 151.602 150.948 151.682C149.554 150.1 148.447 148.996 147.944 146.984C147.704 146.021 147.779 143.314 146.841 142.744C145.727 142.067 145.146 142.963 144.838 143.973C143.811 147.353 144.99 151.897 147.705 155.282C146.561 159.236 145.045 164.857 142.339 168.025C139.443 171.417 135.436 172.473 131.114 172.543C122.871 172.675 114.636 169.61 108.348 164.299C106.437 162.685 104.662 160.881 103.057 158.964C101.852 157.525 100.427 155.305 99.4851 153.627C99.4851 152.973 98.7133 152.289 106.571 151.761C114.429 151.232 115.025 140.469 115.199 139.004C115.341 137.815 115.945 135.968 115.107 134.998C114.752 134.586 114.022 134.52 113.571 134.8C112.721 135.328 112.442 136.679 112.174 137.596C111.8 138.88 110.576 146.854 108.257 147.777C107.171 148.209 105.926 148.217 104.778 148.297C103.36 148.396 101.938 148.469 100.526 148.634C100.005 148.695 99.4365 148.863 98.9225 148.868C98.5881 148.872 98.2431 148.709 97.9198 148.595C96.8289 148.209 95.7387 148.498 94.6148 148.65C84.6776 149.986 74.4457 153.035 65.9696 158.521C58.4988 163.357 53.2355 170.311 49.7625 178.442C46.2189 186.74 44.1877 195.714 42.4856 204.547C41.9153 207.507 41.4174 210.481 40.9896 213.464C40.5761 216.347 40.0589 219.295 39.9351 222.207C39.8861 223.359 40.1614 224.43 40.585 225.482C41.062 226.667 42.1896 227.134 43.2711 227.687C45.6451 228.902 48.1494 229.844 50.7296 230.511C52.3059 233.38 53.6325 236.361 54.6985 239.454C54.303 240.238 54.2948 241.409 54.2187 242.171C54.0301 244.068 53.9494 245.975 53.9325 247.881C53.8984 251.701 54.1281 255.518 54.3081 259.332C54.4906 263.2 55.0974 278.464 55.1963 280.328C55.2732 281.776 55.1696 283.801 55.9321 285.087C57.1038 287.062 59.9956 286.996 61.3351 285.394C94.6148 292.551 157.171 290.395 182.366 286.794C185.644 286.326 184.615 286.845 185.448 286.017C186.074 285.395 186.606 284.329 186.779 283.473C187.01 282.33 186.637 281.296 185.983 280.371C185.295 279.399 185.17 277.824 184.915 276.668C184.311 273.935 184.011 261.932 183.728 260.602C183.64 260.188 183.555 259.75 183.453 259.312C188.074 259.749 192.889 259.749 197.286 258.203C199.779 257.326 202.105 255.949 203.894 253.982C206.062 251.601 207.267 248.603 207.887 245.474C208.687 241.439 208.857 237.26 208.7 233.158C208.482 228.311 207.678 223.395 205.683 218.944C206.34 218.334 206.89 217.599 207.283 216.803Z" fill="black"/>
<path fill-rule="evenodd" clip-rule="evenodd" d="M92.9522 59.6854C94.0479 58.5092 95.4492 57.633 96.9811 57.3529C95.5808 58.0527 94.212 58.7821 92.9522 59.6854ZM90.806 69.8268C90.6123 68.9305 90.4821 68.0255 90.4411 67.1207C90.686 67.4931 91.077 67.7419 91.5163 67.8704C91.2325 68.5059 90.9913 69.1607 90.806 69.8268ZM164.12 83.8802C162.856 78.614 156.955 68.4846 155.561 66.535C154.046 61.7075 162.306 57.8361 157.814 54.0612C155.78 52.3579 153.093 51.7551 150.571 51.1511C133.114 46.9571 114.358 49.0722 98.1676 56.7846C95.7049 56.2662 93.139 57.2794 91.3481 59.059C82.9344 67.5189 94.4007 82.783 96.908 92.3204C101.21 102.955 92.3484 104.744 93.2987 113.742C94.0371 118.39 98.7435 119.619 102.715 120.321C103.352 120.47 104.203 120.493 104.408 121.166C105.052 125.095 107.258 128.839 110.219 131.381C109.96 132.148 110.158 133.08 111.071 133.754C119.346 139.906 129.78 142.985 140.101 142.431C152.401 141.772 158.761 134.719 160.296 132.903C168.783 121.438 167.768 106.311 166.037 92.6476C164.831 83.1293 166.361 93.2093 164.12 83.8802Z" fill="white"/>
<path fill-rule="evenodd" clip-rule="evenodd" d="M126.195 40.0596C126.581 38.8506 127.676 38.1236 128.928 38.2737C130.038 38.4047 131.225 39.5058 131.09 40.7211C131.064 40.9557 131.031 41.1755 130.99 41.3826L130.996 41.3845V41.3845L131.001 41.3847L130.974 41.465C130.891 41.8518 130.777 42.1984 130.608 42.526C130.393 43.1537 130.186 43.7836 129.981 44.4155C130.276 44.4028 130.578 44.4197 130.885 44.4768C131.202 43.6652 131.521 42.8557 131.838 42.042C132.178 41.1734 132.417 40.0575 133.088 39.3854C133.948 38.5273 135.44 38.3497 136.488 38.9627C137.595 39.6094 137.99 40.7591 137.749 41.9913C137.627 42.6198 137.207 43.0572 136.687 43.332L136.631 43.3609L136.232 44.3077C136.355 44.2549 136.481 44.2063 136.619 44.1661C136.834 44.1027 137.045 44.0625 137.252 44.0456C137.823 43.0121 138.45 42.0082 139.099 41.0233C139.845 39.8905 141.302 39.4086 142.526 40.1251C143.62 40.7655 144.207 42.4478 143.424 43.5532C142.828 44.3923 142.264 45.2482 141.708 46.1126C141.803 46.1296 141.898 46.1507 141.989 46.1782C142.031 46.1211 142.076 46.064 142.122 46.007C142.728 45.2546 143.434 44.6903 144.159 44.0647C144.837 43.4771 145.15 42.5535 146.041 42.1076C147.163 41.5475 148.515 41.8159 149.183 42.9318C150.615 45.3222 148.211 47.0679 146.673 48.5157C148.01 47.6809 149.402 46.9179 150.831 46.2585C151.633 45.8886 152.449 45.5314 153.277 45.2229C154.505 44.7663 155.497 44.9124 156.505 45.7618C156.955 46.1422 157.179 46.973 156.972 47.5266C156.571 48.5876 155.937 49.2322 154.826 49.5386C154.044 49.7542 153.243 49.9 152.462 50.1262C151.152 50.5024 149.88 50.961 148.646 51.5338C148.735 51.5887 148.819 51.6479 148.897 51.7155C149.819 51.4175 150.757 51.1597 151.699 50.9399C153.262 50.5733 154.852 50.3256 156.45 50.1707L156.98 50.1213C158.896 49.9374 161.199 49.5981 162.374 51.4323C162.761 52.0368 162.803 53.0344 162.374 53.6325C161.555 54.7822 160.739 55.0105 159.383 55.0316C160.718 55.1732 162.051 55.3487 163.378 55.5537C164.292 55.6932 165.207 55.8513 166.117 56.0267L166.572 56.1159C167.681 56.3378 168.919 56.4667 169.872 57.1092C171.951 58.5126 170.975 61.2453 168.672 61.537C167.559 61.6765 166.323 61.2052 165.231 60.9854C164.17 60.7719 163.105 60.5838 162.036 60.4189C161.483 60.3323 160.929 60.2562 160.374 60.1865C161.504 60.3492 162.626 60.5796 163.718 60.905L164.021 60.9966C166.133 61.6404 168.983 62.6658 169.642 64.9228C170.041 66.2945 168.949 67.4907 167.626 67.571C166.397 67.645 165.372 66.9116 164.328 66.3706C163.568 65.9775 162.795 65.6837 161.975 65.4322C161.128 65.1722 160.264 64.9566 159.393 64.7812C160.129 65.1866 160.845 65.6322 161.533 66.1307L161.849 66.3643C163.677 67.7267 166.464 69.836 165.82 72.3898C165.617 73.1951 164.719 73.9644 163.857 73.882C161.614 73.6727 160.376 71.2823 158.683 70.0016C158.242 69.6676 157.758 69.3379 157.251 69.0167C159.816 72.077 161.857 75.615 163.409 79.2693C166.822 87.3086 167.869 94.7536 167.894 103.398L167.895 103.665C167.899 108.434 167.791 113.288 167.326 118.035C166.895 122.421 166.105 126.749 164.117 130.721C160.786 137.38 154.293 142.567 147.133 144.541C139.167 146.739 130.262 145.02 123.736 139.948C122.071 138.654 124.278 135.846 125.979 137.04C132.771 141.806 141.556 143.315 149.352 140.09C155.536 137.532 160.515 132.031 162.626 125.697C163.969 121.667 164.36 117.37 164.839 113.171L164.871 112.891C165.378 108.499 165.672 104.078 165.668 99.6561C165.662 91.4452 164.483 84.6862 160.872 77.2382C159.174 73.7298 156.97 70.4858 154.338 67.6387C153.539 67.8014 152.69 67.5731 151.883 67.4865C151.471 67.4421 151.059 67.3998 150.647 67.3618C151.068 67.634 151.48 67.9171 151.886 68.2067L152.418 68.5906C154.083 69.7835 156.196 71.1423 155.768 73.4487C155.652 74.0722 155.031 74.6449 154.428 74.7865C152.246 75.3065 150.746 73.1845 149.271 71.9249C147.989 70.8301 146.647 69.8494 145.281 68.8666C144.97 68.6447 144.657 68.4228 144.343 68.203C144.638 68.5479 144.926 68.8982 145.207 69.2518L145.622 69.7779C146.877 71.3493 148.687 73.3919 147.569 75.429C147.252 76.0039 146.576 76.3865 145.921 76.3738C143.669 76.3273 142.773 73.7699 141.717 72.1552C140.808 70.7709 139.821 69.4669 138.801 68.1628C138.52 67.8056 138.237 67.4485 137.95 67.0913C133.219 67.3364 128.506 67.962 123.875 68.9617C120.693 69.6486 117.564 70.5386 114.459 71.5127L114.201 71.5949C112.52 72.1362 110.788 72.8291 109.576 74.0172C109.403 74.8358 109.536 75.6991 109.702 76.5167L109.831 77.1424C110.362 79.7591 110.724 82.3273 110.453 85.0138C110.172 87.7846 109.338 90.2764 108.319 92.8506C107.838 94.0638 107.339 93.844 107.168 95.1459C107.037 96.1376 107.118 97.1613 107.207 98.1613L107.282 99.009C107.47 101.23 107.564 103.651 106.109 105.483C105.883 105.764 105.4 105.652 105.239 105.371C105.176 105.259 105.108 105.151 105.034 105.048C104.333 104.031 103.257 103.452 102.028 103.228C101.871 103.2 101.933 102.991 102.064 102.974C103.103 102.852 104.088 103.112 104.924 103.649C104.528 102.276 101.456 102.944 100.446 103.21L100.412 103.219C99.1524 103.558 97.9609 104.107 96.9109 104.885C94.7982 106.449 93.5771 108.888 93.6383 111.515C93.6996 114.098 95.0327 116.484 97.3228 117.72C98.4278 118.316 99.6848 118.604 100.936 118.591C102.241 118.578 103.403 118.006 104.711 118.086C105.467 118.132 106.046 118.944 105.609 119.652C105.317 120.125 104.937 120.497 104.497 120.783C105.569 123.253 106.936 125.61 108.512 127.785C109.384 128.992 110.373 130.105 111.461 131.122C112.31 131.917 114.15 132.836 114.047 134.161C114.011 134.639 113.764 134.93 113.328 135.108C111.975 135.661 110.33 133.756 109.425 132.837L109.352 132.764C108.224 131.64 107.195 130.397 106.3 129.078C104.711 126.736 103.724 124.097 103.317 121.324C101.147 121.977 98.2736 121.364 96.5031 120.563C90.9383 118.048 89.1193 110.551 92.5017 105.559C93.1567 104.593 93.9764 103.767 94.9102 103.099C94.7052 102.987 94.513 102.843 94.3419 102.662C93.3952 101.656 92.7259 100.343 92.0617 99.1329L91.982 98.9883C91.3923 97.9231 90.836 96.8411 90.3146 95.7425L90.1207 95.3298C88.9567 92.8253 87.9362 91.7305 87.1059 89.0971C86.3074 86.5566 85.6778 83.9676 85.27 81.3342L85.1617 80.6371C84.9259 79.1091 84.7028 77.4751 84.875 75.9236C83.6898 76.3104 82.4982 76.5492 81.3257 75.968C80.5524 75.5854 80.1257 74.4695 80.3898 73.6685C80.582 73.0788 80.9031 72.616 81.3109 72.2524C81.0679 72.1299 80.8398 71.9735 80.639 71.8002L80.4637 71.6482V71.6482C79.7538 71.0308 79.7031 69.8578 80.1341 69.0843C80.1764 69.0103 80.2186 68.9342 80.2588 68.8603C80.6686 68.1269 81.5158 67.6471 82.3524 67.6598C82.4876 67.6619 82.6228 67.6619 82.7602 67.6598C82.3693 67.5732 81.9869 67.44 81.6236 67.216C79.9841 66.2078 80.1912 63.4751 82.175 62.9932C83.0074 62.7924 83.9264 62.8748 84.8433 63.0904C84.8095 63.0714 84.7757 63.0524 84.7419 63.0312C84.0489 62.6064 83.4679 61.7758 83.5334 60.9241C83.6052 59.9814 83.9095 59.3094 84.7419 58.8148C85.4644 58.3879 86.4869 58.3477 87.2052 58.8148C87.8285 59.2227 88.439 59.6729 89.0264 60.1569C88.4369 59.4319 87.9257 58.6436 87.7186 57.8067C87.463 56.7647 87.8897 55.6297 88.8278 55.0802C89.5757 54.6427 90.3658 54.6914 91.0714 55.0295C91.0334 54.4821 91.1665 53.9241 91.5299 53.4296C92.2736 52.4153 93.6257 51.8318 94.8024 52.5715C94.9566 52.6687 95.1637 52.8357 95.3644 53.0407C94.9736 51.7959 95.3264 50.4897 96.6595 49.9275C97.4728 49.583 98.5736 49.7563 99.2792 50.3502C98.8313 47.926 102.408 46.1443 103.798 48.6488C104.114 49.2162 104.426 49.8136 104.705 50.4248L104.808 50.6546L104.819 50.6503L104.748 50.4823V50.4823L104.675 50.3143C104.288 49.416 103.796 48.4819 103.661 47.5076C103.462 46.0661 104.105 44.6987 105.672 44.4874C106.481 44.3775 107.381 44.7452 107.924 45.3879C107.631 43.1516 110.128 41.5263 111.926 43.196C112.777 43.9865 113.231 45.1425 113.772 46.157C114.078 46.7298 114.391 47.3004 114.697 47.8753C114.776 47.7823 114.86 47.6893 114.949 47.5984C114.495 46.2373 114.142 44.8424 113.844 43.4391C113.561 42.116 114.222 40.7422 115.587 40.3684C116.827 40.0258 118.38 40.7911 118.657 42.112C118.851 43.0417 119.081 43.9613 119.335 44.8762C119.508 44.834 119.679 44.8044 119.848 44.7832C119.862 44.6114 119.878 44.4385 119.896 44.2666L119.963 43.6552C120.11 42.2583 120.259 40.6637 120.989 39.4762C122.233 37.4473 125.424 38.2885 125.457 40.6873C125.476 41.9279 124.971 43.158 124.796 44.3859C124.72 44.9206 124.676 45.4617 124.65 46.0027C124.99 44.2063 125.457 42.433 125.998 40.6873C126.062 40.478 126.129 40.2688 126.195 40.0596ZM98.6714 109.336C101.471 108.903 104.029 110.465 105.688 112.652C105.99 113.052 105.791 113.616 105.519 113.952C105.322 114.199 105.058 114.229 104.76 114.267C104.418 114.311 103.985 114.034 103.835 113.736C102.768 111.606 100.864 110.26 98.6714 109.431C98.6313 109.416 98.6186 109.344 98.6714 109.336ZM102.551 71.1652L102.635 71.0741C103.202 70.4864 102.307 69.5886 101.739 70.1776C101.141 70.7977 100.744 71.551 100.362 72.3144C99.9981 73.0422 101.091 73.6852 101.457 72.9545L101.623 72.6224C101.884 72.1061 102.163 71.5959 102.551 71.1652V71.1652ZM94.6902 69.9589C95.493 69.8236 95.1526 68.6014 94.3532 68.7362C93.3176 68.9108 92.286 69.1093 91.2501 69.284C90.4475 69.4193 90.7879 70.6415 91.5873 70.5069C92.6229 70.3321 93.6546 70.1337 94.6902 69.9589ZM142.514 61.6146C141.739 61.3557 141.406 62.58 142.177 62.8374C143.243 63.1931 144.3 63.5577 145.311 64.0516C146.042 64.4084 146.685 63.3151 145.951 62.9566C144.841 62.4145 143.684 62.0051 142.514 61.6146ZM94.507 59.9711C93.7497 59.668 93.4207 60.8941 94.1701 61.194L96.9081 62.2894V62.2894C97.6655 62.5925 97.9944 61.3666 97.2451 61.0667L94.507 59.9711V59.9711ZM152.075 56.9937L151.975 56.9306C151.288 56.4855 150.652 57.5828 151.335 58.0256C151.736 58.2854 152.223 58.4616 152.59 58.7711L152.667 58.8395C153.26 59.3996 154.158 58.5048 153.563 57.9428C153.128 57.532 152.578 57.3033 152.075 56.9937V56.9937Z" fill="black"/>
<path fill-rule="evenodd" clip-rule="evenodd" d="M142.969 128.92C141.549 128.34 140.282 127.373 139.355 126.138C139.033 125.709 138.949 125.256 139.017 124.841C139.093 124.375 139.369 123.952 139.745 123.669C140.122 123.384 140.594 123.244 141.05 123.316C141.446 123.378 141.841 123.595 142.153 124.045L142.219 124.135C142.769 124.881 143.487 125.492 144.305 125.886C145.093 126.266 145.975 126.444 146.887 126.341C148.624 126.144 149.822 125.204 151.095 123.928C151.252 123.767 151.41 123.6 151.569 123.432C151.669 123.278 151.808 123.18 151.963 123.128C152.134 123.071 152.328 123.074 152.505 123.136C152.677 123.196 152.83 123.309 152.932 123.46C153.03 123.604 153.085 123.781 153.067 123.984C152.951 125.307 152.26 126.488 151.278 127.415C150.187 128.444 148.741 129.157 147.38 129.406C145.88 129.682 144.352 129.484 142.969 128.92V128.92ZM148.088 108.512C149.683 109.482 152.114 111.744 150.398 114.149C148.378 116.27 145.469 113.838 144.036 112.739C142.707 111.887 141.213 114.078 142.446 115.074C152.804 122.745 157.007 108.766 148.895 107.371C148.002 107.218 147.67 108.212 148.088 108.512ZM129.527 99.5886C129.704 97.3998 133.036 96.9028 133.367 99.0687C133.664 101.009 133.315 102.791 132.441 104.538C131.607 106.207 129.509 105.428 129.35 103.909C129.137 101.872 129.418 100.95 129.527 99.5886ZM154.893 98.6196C155.358 98.0109 156.029 97.5954 156.832 97.8302C159.343 98.5643 158.603 102.13 157.721 103.866C157.242 104.809 155.693 105.048 154.994 104.218C153.853 102.864 153.306 100.161 154.757 98.8282C154.796 98.7593 154.84 98.6898 154.893 98.6196ZM132.406 90.0111L132.803 89.9417C134.03 89.7294 135.555 89.5254 136.423 90.5122C136.884 91.0355 137.042 92.0082 136.423 92.5091C135.335 93.3904 134.131 93.0488 132.827 93.1235C131.752 93.1852 130.719 93.3631 129.684 93.6592C127.412 94.3087 125.561 95.4944 123.621 96.7963C123.366 96.9671 123.107 96.6414 123.228 96.4032C124.348 94.2087 126.518 92.4061 128.692 91.3073C129.853 90.7208 131.122 90.2343 132.406 90.0111ZM152.604 89.0281L152.908 89.0902C156.212 89.7811 160.504 91.161 162.068 94.4073C162.128 94.8663 162.065 94.9647 162.014 95.0289L161.997 95.0503C161.954 95.1052 161.921 95.1809 161.722 95.2434C161.667 95.2302 161.611 95.2163 161.555 95.2015C160.837 95.0135 160.27 94.7545 159.721 94.4858L159.125 94.1922C158.434 93.8533 157.737 93.5267 156.999 93.2856C155.422 92.7712 153.8 92.4088 152.154 92.2153C151.797 92.1734 151.453 92.0529 151.182 91.8464C150.925 91.6504 150.728 91.379 150.638 91.0182C150.522 90.5513 150.556 90.1978 150.806 89.7766C150.994 89.4603 151.264 89.2411 151.573 89.1152C151.888 88.9868 152.247 88.9566 152.604 89.0281Z" fill="black"/>
</svg>
